<?xml version="1.0" encoding="utf-8"?>
<!-- Generator: Adobe Illustrator 15.0.0, SVG Export Plug-In . SVG Version: 6.00 Build 0)  -->
<!DOCTYPE svg PUBLIC "-//W3C//DTD SVG 1.1//EN" "http://www.w3.org/Graphics/SVG/1.1/DTD/svg11.dtd">
<svg version="1.1" id="Layer_1" xmlns="http://www.w3.org/2000/svg" xmlns:xlink="http://www.w3.org/1999/xlink" x="0px" y="0px"
	 width="1000px" height="1000px" viewBox="0 0 1000 1000" enable-background="new 0 0 1000 1000" xml:space="preserve">
<image overflow="visible" opacity="0" width="2448" height="2448" xlink:href="126873B9.jpg"  transform="matrix(0 0.281 -0.281 0 1486.9658 95.4683)">
</image>
<g>
	<path fill="none" stroke="#050505" stroke-miterlimit="10" d="M294.333,367.667L291,225c0,0,2.114-10.801,2.457-11.848
		c3.46-10.577,11.75-25.669,31.543-34.152c32.667-14,68-26,113.333-28S562.334,145.666,615,166.333
		c41.333,16.22,51.459,27.101,53.26,47.146c0.074,0.827,0.135,1.669,0.183,2.528c0.268,4.851,0.135,10.232-0.109,16.326
		c-1.333,33.333-4,140-4,140s-50.002,77.998-64.002,110.665c-14,34-31.332,87.333-32.666,102C568.331,590.33,570.25,608,496,610
		c-40.75-0.25-85.75-1.25-100.5-12.5c-2.25-1.75-5-1.75-8.75-25.25C386,566.25,360.5,455.5,298,382.5
		C296.5,379.5,294.594,378.824,294.333,367.667z"/>
	<path fill="none" stroke="#050505" stroke-miterlimit="10" d="M293.114,214.199l-0.515,2.821l1.583-5.951
		c0,0,214.337-71.111,374.077,2.41"/>
	<path fill="none" stroke="#050505" stroke-miterlimit="10" d="M661.998,375.999c0,0-236.174-21.505-365.586,3.748"/>
	<path fill="none" stroke="#050505" stroke-miterlimit="10" d="M292.752,300.006c0,0,178.947-54.986,373.597-3.996"/>
	<path fill="none" stroke="#050505" stroke-miterlimit="10" d="M292.599,338c0,0,203.147-32.928,372.774-3.964"/>
	<path fill="none" stroke="#050505" stroke-miterlimit="10" d="M463.5,300v-4c0,0,2.5-6.5,8.5-6.5s25,0,25,0s7.334,1,10.667,5.25
		c1,4.25,0,5.172,0,5.172s0.667,2.578-7.667,2.578c-8.333,0-30,0-30,0S463.5,304,463.5,300z"/>
	<circle fill="none" stroke="#050505" stroke-miterlimit="10" cx="485.806" cy="255.333" r="8.806"/>
	<path fill="none" stroke="#050505" stroke-miterlimit="10" d="M552.5,602v11c0,0,0.834,5.666-2.166,7.333
		c0.088,0.528,0.193,1.424,0.3,2.581c0.696,7.598,1.416,26.462-2.634,26.752c0.667,4.667,0.668,21.334-1.666,24.667
		S525.333,685,517,687.333s-45.667,5.667-67.333,2S414,679.332,411,673.666S408.75,649,408.75,649s-2.25-2.333-2.25-8
		c0-4.684,0-16.654,0-20.667c0-0.842,0-1.333,0-1.333s-2.833-15.667,0-17"/>
	<path fill="none" stroke="#050505" stroke-miterlimit="10" d="M406.5,620.333c0,0,64.135,39.247,143.834,0"/>
	<path fill="none" stroke="#050505" stroke-miterlimit="10" d="M408.75,649c0,0,59.551,39.913,139.25,0.666"/>
	<path fill="none" stroke="#020202" stroke-miterlimit="10" d="M417.019,679.122l-1.769,16.128c0,0-0.5,6.75,4.25,9
		c-3.25,3.75-8.25,10.25,0,18.25c-2.25,3-7.75,8.75,0,20.75c-1,3,0.75,18,2.25,20.25c0,2,6.25,10.75,8.25,13s9.5,9.75,14,11.75
		s4.5,2,4.5,2s7.135,11.758,10.567,14.004S482.5,826,504.75,802.5c5-7.25,7.5-12,8.75-12.75S524.75,782,529,778.5s8-13.75,8.75-19.5
		s5.25-10,2.75-24.25c2.25-4.5,3.498-19.75,0.749-19.75c2.001-3.75,6.001-8,0.001-18.25c2.5-5.5,3.514-16.08,0.882-19.415"/>
	<path fill="none" stroke="#020202" stroke-miterlimit="10" d="M417.667,702.75c0,0,52.307,26.25,123.091-5.75"/>
	<path fill="none" stroke="#020202" stroke-miterlimit="10" d="M419.75,722.75c0,0,52.13,26.25,122.675-5.75"/>
	<path fill="none" stroke="#020202" stroke-miterlimit="10" d="M420.256,742.75c0,0,51.356,26.25,120.853-5.75"/>
	<path fill="none" stroke="#020202" stroke-miterlimit="10" d="M420.75,759.75c0,0,50.25,26.25,118.25-5.75"/>
	<path fill="none" stroke="#020202" stroke-miterlimit="10" d="M445.083,787.75c0,0,33.748,26.25,79.417-5.75"/>
	
		<rect x="429.82" y="408.566" transform="matrix(-2.506216e-004 1 -1 -2.506216e-004 925.73 -41.0708)" fill="none" stroke="#050505" stroke-miterlimit="10" width="107.151" height="67.296"/>
	<line fill="none" stroke="#050505" stroke-width="3" stroke-miterlimit="10" x1="457.585" y1="463.889" x2="509.263" y2="463.9"/>
	
		<line fill="none" stroke="#050505" stroke-width="3" stroke-miterlimit="10" x1="466.379" y1="438.098" x2="499.225" y2="438.106"/>
	<line fill="none" stroke="#050505" stroke-width="3" stroke-miterlimit="10" x1="457.924" y1="412.461" x2="509.6" y2="412.474"/>
	<rect x="544.644" y="399.884" fill="none" width="47.367" height="88.532"/>
	<text transform="matrix(1 0 0 1 544.6436 416.5835)"><tspan x="0" y="0" font-family="'MyriadPro-Regular'" font-size="23.521">DC</tspan><tspan x="0" y="28.225" font-family="'MyriadPro-Regular'" font-size="23.521">OFF</tspan><tspan x="0" y="56.45" font-family="'MyriadPro-Regular'" font-size="23.521">AC</tspan></text>
	<circle cx="530.921" cy="407.728" r="4.899"/>
	<circle cx="530.921" cy="436.654" r="4.899"/>
	<circle cx="530.921" cy="465.403" r="4.899"/>
	<rect x="408.024" y="558.501" fill="none" width="55.439" height="18.123"/>
	<text transform="matrix(1 0 0 1 408.0244 572.126)" font-family="'MyriadPro-Regular'" font-size="19.1902">Open</text>
	
		<rect x="498.543" y="560.632" transform="matrix(0.9995 -0.0302 0.0302 0.9995 -16.938 16.1284)" fill="none" width="55.546" height="18.124"/>
	<text transform="matrix(1 0 0 1 508.748 573.4248)" font-family="'MyriadPro-Regular'" font-size="19.1902">Close</text>
	<path d="M463.016,565.932c0,0,4.464-4.799,3.799-1.8c-0.133,2.065-0.133,2.065-0.133,2.065h18.257h6.928h3.135
		c0,0,0.931,0.532,1.197-0.866c0.268-1.397,0.201-3.37,1.401-2.185c1.199,1.184,3.73,3.85,3.73,3.85l0.534,0.934l-3.931,4.332
		c0,0-1.667,3.132-2.065,0c0.065-1.066,0.532-1.533-1.334-1.4c-1.865,0.135-25.121,0.401-25.121,0.401s-3.132-0.667-2.731,0.999
		c0.133,1.731,0,3.398-2.332,1.066c-2.332-2.332-3.531-3.932-3.531-3.932s-1-0.8,0.6-2.133
		C463.016,565.932,463.016,565.932,463.016,565.932z"/>
</g>
</svg>
