<?xml version="1.0" encoding="utf-8"?>
<!-- Generator: Adobe Illustrator 15.0.0, SVG Export Plug-In . SVG Version: 6.00 Build 0)  -->
<!DOCTYPE svg PUBLIC "-//W3C//DTD SVG 1.1//EN" "http://www.w3.org/Graphics/SVG/1.1/DTD/svg11.dtd">
<svg version="1.1" id="Layer_1" xmlns="http://www.w3.org/2000/svg" xmlns:xlink="http://www.w3.org/1999/xlink" x="0px" y="0px"
	 width="106px" height="106px" viewBox="0 0 106 106" enable-background="new 0 0 106 106" xml:space="preserve">
<symbol  id="Indoor_Sym" viewBox="-54.5 -43.181 109 109">
	<g>
		<path fill="#F26F21" d="M0.602,35.604h-0.854L-28.9,4.229v-22.516c0-3.104,2.403-5.587,5.34-5.587h46.213
			c2.965,0,5.342,2.483,5.342,5.587V3.815L0.602,35.604z M7.143-16.415c0-1.537-1.201-2.793-2.671-2.793h-9.854
			c-1.467,0-2.667,1.256-2.667,2.793V5.938c0,1.533,1.2,2.793,2.667,2.793h9.854c1.47,0,2.671-1.26,2.671-2.793V-16.415z"/>
		<path fill="#F26F21" d="M-36.24,10.222c0,0,33.021,36.23,33.265,36.518c1.89,2.205,4.429,2.33,6.245,0.005
			c3.271-4.182,14.121-16.55,14.121-16.55c0,4.658,0.139,9.352,0.027,14.014c-0.036,1.389-0.027,2.746,0.68,3.926
			c1.088,1.799,2.709,2.257,4.482,1.938c1.569-0.276,3.158-1.206,3.279-3.328c0.15-2.614,0-26.657,0-26.657
			c2.723-3.094,5.436-6.209,8.149-9.314c1.413-1.615,3.664-4.479,1.808-6.885c-1.335-1.744-2.222-0.875-3.416,0
			C31.213,4.759,2.281,38.817,1.32,39.974c-0.928,1.108-2.15-0.099-2.51-0.373C-2.605,38.509-32.82,5.163-32.82,5.163
			s-2.455-1.668-3.42-0.692C-37.514,5.759-38.33,7.788-36.24,10.222z"/>
	</g>
	<path fill="none" stroke="#F26F21" stroke-width="2" stroke-miterlimit="10" d="M53.5-36.586c0-3.09-3.329-5.595-7.436-5.595
		h-92.129c-4.106,0-7.436,2.505-7.436,5.595v95.811c0,3.09,3.329,5.595,7.436,5.595h92.129c4.106,0,7.436-2.505,7.436-5.595V-36.586
		z"/>
</symbol>
<use xlink:href="#Indoor_Sym"  width="109" height="109" id="XMLID_2_" x="-54.5" y="-43.181" transform="matrix(0.9153 0 0 -0.9534 52.8848 63.7539)" overflow="visible"/>
</svg>
