<?xml version="1.0" encoding="utf-8"?>
<!-- Generator: Adobe Illustrator 15.0.0, SVG Export Plug-In . SVG Version: 6.00 Build 0)  -->
<!DOCTYPE svg PUBLIC "-//W3C//DTD SVG 1.1//EN" "http://www.w3.org/Graphics/SVG/1.1/DTD/svg11.dtd">
<svg version="1.1" id="Layer_1" xmlns="http://www.w3.org/2000/svg" xmlns:xlink="http://www.w3.org/1999/xlink" x="0px" y="0px"
	 width="106px" height="106px" viewBox="0 0 106 106" enable-background="new 0 0 106 106" xml:space="preserve">
<symbol  id="Outdoor_Sym" viewBox="-55.149 -42.529 109 109">
	<g>
		<polygon fill="#F26F21" points="-0.11,-23.875 -0.11,30.074 -1.882,30.074 -1.882,-23.875 -39.271,-23.875 -0.997,49.194 
			37.271,-23.875 		"/>
		<polygon fill="#F26F21" points="-0.409,49.844 10.077,55.298 39.901,2.73 37.862,-23.225 		"/>
	</g>
	<path fill="none" stroke="#F26F21" stroke-width="2" stroke-miterlimit="10" d="M52.851-35.896c0-3.111-3.287-5.633-7.341-5.633
		h-92.318c-4.054,0-7.341,2.521-7.341,5.633v95.734c0,3.111,3.287,5.633,7.341,5.633H45.51c4.054,0,7.341-2.521,7.341-5.633V-35.896
		z"/>
</symbol>
<use xlink:href="#Outdoor_Sym"  width="109" height="109" id="XMLID_3_" x="-55.149" y="-42.529" transform="matrix(0.9034 0 0 -0.9302 52.8623 64.1357)" overflow="visible"/>
</svg>
