<?xml version="1.0" encoding="utf-8"?>
<!-- Generator: Adobe Illustrator 15.0.0, SVG Export Plug-In . SVG Version: 6.00 Build 0)  -->
<!DOCTYPE svg PUBLIC "-//W3C//DTD SVG 1.1//EN" "http://www.w3.org/Graphics/SVG/1.1/DTD/svg11.dtd">
<svg version="1.1" id="Layer_1" xmlns="http://www.w3.org/2000/svg" xmlns:xlink="http://www.w3.org/1999/xlink" x="0px" y="0px"
	 width="478px" height="241px" viewBox="0 0 478 241" enable-background="new 0 0 478 241" xml:space="preserve">
<g>
	<defs>
		<rect id="SVGID_1_" x="0.109" y="29.299" width="478" height="241"/>
	</defs>
	<clipPath id="SVGID_2_">
		<use xlink:href="#SVGID_1_"  overflow="visible"/>
	</clipPath>
	<g clip-path="url(#SVGID_2_)">
		<path d="M171.226,150.669c0,4.479-1.704,8.252-5.112,11.319c-3.409,3.067-7.226,4.601-11.451,4.601h-17.791
			c-4.637,0-8.555-1.503-11.758-4.509c-3.205-3.005-4.806-6.811-4.806-11.411v-49.047h10.327v47.851
			c0,2.884,0.597,4.893,1.795,6.028c1.196,1.135,3.233,1.702,6.105,1.702h14.568c2.735,0,4.718-0.567,5.95-1.702
			c1.23-1.136,1.847-2.96,1.847-5.476v-48.403h10.326V150.669z"/>
		<path d="M231.347,158.859c0,2.761-0.813,4.908-2.44,6.44c-1.625,1.533-3.588,2.301-5.893,2.301c-2.032,0-3.946-0.571-5.742-1.712
			c-1.796-1.142-3.201-2.824-4.218-5.047l-21.583-46.71v52.457h-10.327v-55.856c0-3.129,0.819-5.521,2.46-7.179
			c1.639-1.655,3.69-2.485,6.151-2.485c1.912,0,3.774,0.568,5.585,1.703c1.812,1.135,3.195,2.746,4.153,4.832l21.527,47.662v-53.644
			h10.327V158.859z"/>
		<rect x="241.263" y="101.621" width="10.327" height="64.968"/>
		<path fill="#F37021" d="M307.211,166.589H280.32c-5.999,0-10.633-1.411-13.904-4.233c-3.271-2.82-4.909-6.84-4.909-12.055v-48.679
			h10.327v48.587c0,2.516,0.629,4.31,1.892,5.383c1.261,1.074,3.391,1.611,6.391,1.611h27.095V166.589z"/>
		<path fill="#F37021" d="M358.436,111.008h-30.162c-1.636,0-3.068,0.552-4.295,1.656c-1.432,1.35-2.146,3.191-2.146,5.521v10.951
			h36.501v9.386h-36.501v12.763c0,2.158,1.056,3.729,3.168,4.716c1.773,0.803,4.534,1.203,8.282,1.203h24.846v9.386H330.42
			c-6.136,0-10.822-1.487-14.06-4.463s-4.855-7.284-4.855-12.93V117.91c0-5.582,1.668-9.693,5.01-12.332
			c3.339-2.637,8.621-3.956,15.847-3.956h26.074V111.008z"/>
		<path fill="#F37021" d="M418.35,150.116c0,4.663-1.584,8.574-4.754,11.734c-3.17,3.159-7.243,4.738-12.219,4.738h-34.456v-64.968
			h36.399c4.295,0,7.873,1.381,10.736,4.141c2.861,2.762,4.293,6.412,4.293,10.951V150.116z M408.022,149.381v-30.918
			c0-2.639-0.545-4.541-1.636-5.707c-1.09-1.164-3.034-1.748-5.827-1.748h-23.312v46.194h23.618
			C405.638,157.202,408.022,154.596,408.022,149.381"/>
		<path d="M59.545,96.254c-1.544,0-2.875-0.498-3.995-1.494c-1.12-0.995-1.681-2.389-1.681-4.182c0-1.518,0.535-2.824,1.606-3.921
			c1.07-1.095,2.39-1.643,3.959-1.643c1.568,0,2.905,0.541,4.013,1.625c1.108,1.081,1.662,2.396,1.662,3.938
			c0,1.768-0.554,3.156-1.662,4.163C62.339,95.75,61.038,96.254,59.545,96.254"/>
		<path d="M74.534,81.672c-1.544,0-2.876-0.498-3.996-1.494c-1.121-0.994-1.68-2.39-1.68-4.182c0-1.518,0.534-2.824,1.605-3.921
			c1.071-1.095,2.389-1.644,3.959-1.644c1.567,0,2.906,0.541,4.014,1.625c1.108,1.082,1.661,2.396,1.661,3.939
			c0,1.768-0.553,3.156-1.661,4.163C77.328,81.168,76.028,81.672,74.534,81.672"/>
		<path d="M89.522,66.93c-1.544,0-2.875-0.498-3.995-1.494c-1.121-0.995-1.681-2.389-1.681-4.182c0-1.519,0.535-2.825,1.606-3.921
			c1.07-1.095,2.389-1.643,3.958-1.643c1.568,0,2.907,0.541,4.014,1.625c1.108,1.082,1.661,2.395,1.661,3.938
			c0,1.768-0.553,3.155-1.661,4.163C92.317,66.426,91.016,66.93,89.522,66.93"/>
		<path d="M104.511,52.539c-1.543,0-2.875-0.498-3.996-1.494c-1.119-0.996-1.68-2.39-1.68-4.182c0-1.519,0.535-2.825,1.606-3.921
			c1.07-1.095,2.39-1.643,3.959-1.643c1.567,0,2.906,0.541,4.014,1.624c1.107,1.083,1.66,2.396,1.66,3.94
			c0,1.767-0.553,3.155-1.66,4.163C107.306,52.035,106.005,52.539,104.511,52.539"/>
		<path d="M59.545,110.822c-1.544,0-2.875-0.498-3.995-1.494s-1.681-2.391-1.681-4.182c0-1.52,0.535-2.826,1.606-3.922
			c1.07-1.095,2.39-1.643,3.959-1.643c1.568,0,2.905,0.541,4.013,1.624s1.662,2.396,1.662,3.94c0,1.766-0.554,3.154-1.662,4.162
			C62.339,110.318,61.038,110.822,59.545,110.822"/>
		<path d="M74.534,96.239c-1.544,0-2.876-0.498-3.996-1.493c-1.121-0.996-1.68-2.391-1.68-4.184c0-1.518,0.534-2.824,1.605-3.92
			c1.071-1.094,2.389-1.644,3.959-1.644c1.567,0,2.906,0.541,4.014,1.625c1.108,1.082,1.661,2.396,1.661,3.938
			c0,1.769-0.553,3.156-1.661,4.164C77.328,95.735,76.028,96.239,74.534,96.239"/>
		<path fill="#F37021" d="M89.522,81.497c-1.544,0-2.875-0.498-3.995-1.494c-1.121-0.995-1.681-2.39-1.681-4.182
			c0-1.519,0.535-2.825,1.606-3.921c1.07-1.096,2.389-1.643,3.958-1.643c1.568,0,2.907,0.541,4.014,1.623
			c1.108,1.084,1.661,2.396,1.661,3.94c0,1.767-0.553,3.155-1.661,4.164C92.317,80.993,91.016,81.497,89.522,81.497"/>
		<path d="M104.511,67.105c-1.543,0-2.875-0.498-3.996-1.494c-1.119-0.994-1.68-2.39-1.68-4.182c0-1.518,0.535-2.825,1.606-3.921
			c1.07-1.095,2.39-1.643,3.959-1.643c1.567,0,2.906,0.541,4.014,1.624c1.107,1.083,1.66,2.396,1.66,3.94
			c0,1.768-0.553,3.154-1.66,4.163C107.306,66.602,106.005,67.105,104.511,67.105"/>
		<path d="M59.545,125.388c-1.544,0-2.875-0.497-3.995-1.493s-1.681-2.391-1.681-4.183c0-1.517,0.535-2.824,1.606-3.921
			c1.07-1.094,2.39-1.643,3.959-1.643c1.568,0,2.905,0.541,4.013,1.625c1.108,1.082,1.662,2.396,1.662,3.938
			c0,1.768-0.554,3.155-1.662,4.164C62.339,124.886,61.038,125.388,59.545,125.388"/>
		<path fill="#F37021" d="M74.534,110.807c-1.544,0-2.876-0.498-3.996-1.494c-1.121-0.995-1.68-2.39-1.68-4.182
			c0-1.52,0.534-2.825,1.605-3.922c1.071-1.094,2.389-1.643,3.959-1.643c1.567,0,2.906,0.541,4.014,1.624s1.661,2.396,1.661,3.94
			c0,1.767-0.553,3.154-1.661,4.162C77.328,110.303,76.028,110.807,74.534,110.807"/>
		<path d="M89.522,96.064c-1.544,0-2.875-0.498-3.995-1.494c-1.121-0.996-1.681-2.389-1.681-4.183c0-1.518,0.535-2.825,1.606-3.921
			c1.07-1.095,2.389-1.643,3.958-1.643c1.568,0,2.907,0.541,4.014,1.625c1.108,1.082,1.661,2.396,1.661,3.938
			c0,1.769-0.553,3.156-1.661,4.163C92.317,95.561,91.016,96.064,89.522,96.064"/>
		<path d="M104.511,81.672c-1.543,0-2.875-0.498-3.996-1.494c-1.119-0.994-1.68-2.39-1.68-4.182c0-1.518,0.535-2.824,1.606-3.921
			c1.07-1.095,2.39-1.644,3.959-1.644c1.567,0,2.906,0.541,4.014,1.625c1.107,1.082,1.66,2.396,1.66,3.939
			c0,1.768-0.553,3.156-1.66,4.163C107.306,81.17,106.005,81.672,104.511,81.672"/>
		<path d="M59.545,139.955c-1.544,0-2.875-0.497-3.995-1.493s-1.681-2.392-1.681-4.184c0-1.519,0.535-2.823,1.606-3.92
			c1.07-1.095,2.39-1.643,3.959-1.643c1.568,0,2.905,0.54,4.013,1.624c1.108,1.082,1.662,2.396,1.662,3.938
			c0,1.769-0.554,3.156-1.662,4.164S61.038,139.955,59.545,139.955"/>
		<path d="M74.534,125.374c-1.544,0-2.876-0.499-3.996-1.495c-1.121-0.996-1.68-2.389-1.68-4.181c0-1.519,0.534-2.825,1.605-3.923
			c1.071-1.094,2.389-1.643,3.959-1.643c1.567,0,2.906,0.542,4.014,1.625s1.661,2.396,1.661,3.94c0,1.766-0.553,3.155-1.661,4.161
			C77.328,124.87,76.028,125.374,74.534,125.374"/>
		<path d="M89.522,110.631c-1.544,0-2.875-0.498-3.995-1.494c-1.121-0.995-1.681-2.39-1.681-4.182c0-1.518,0.535-2.824,1.606-3.922
			c1.07-1.094,2.389-1.643,3.958-1.643c1.568,0,2.907,0.542,4.014,1.625c1.108,1.082,1.661,2.396,1.661,3.939
			c0,1.768-0.553,3.156-1.661,4.162C92.317,110.128,91.016,110.631,89.522,110.631"/>
		<path d="M104.511,96.239c-1.543,0-2.875-0.498-3.996-1.494c-1.119-0.995-1.68-2.39-1.68-4.183c0-1.518,0.535-2.824,1.606-3.92
			c1.07-1.094,2.39-1.644,3.959-1.644c1.567,0,2.906,0.541,4.014,1.625c1.107,1.082,1.66,2.396,1.66,3.938
			c0,1.769-0.553,3.156-1.66,4.164C107.306,95.735,106.005,96.239,104.511,96.239"/>
	</g>
</g>
<rect x="264.154" y="173.799" fill="none" width="154.18" height="20.535"/>
<text transform="matrix(1 0 0 1 264.1543 192.7988)" font-family="'Verdana'" font-size="25">South Africa</text>
</svg>
